<?xml version="1.0" standalone="no"?>
<!DOCTYPE svg PUBLIC "-//W3C//DTD SVG 20010904//EN"
 "http://www.w3.org/TR/2001/REC-SVG-20010904/DTD/svg10.dtd">
<svg version="1.0" xmlns="http://www.w3.org/2000/svg"
 width="4500.000000pt" height="4500.000000pt" viewBox="0 0 4500.000000 4500.000000"
 preserveAspectRatio="xMidYMid meet">

<g transform="translate(0.000000,4500.000000) scale(0.100000,-0.100000)"
fill="#000000" stroke="none">
<path d="M29415 30349 c-330 -31 -671 -121 -906 -239 -307 -156 -556 -392
-724 -690 -188 -331 -320 -730 -390 -1174 -39 -253 -85 -747 -85 -928 l0 -78
-555 0 -555 0 0 -865 0 -865 545 0 545 0 0 -2720 0 -2720 920 0 920 0 0 2720
0 2720 985 0 985 0 0 865 0 865 -990 0 -990 0 0 168 c0 363 55 684 153 895 95
204 265 332 489 367 103 17 497 7 588 -14 201 -46 409 -159 653 -355 48 -39
90 -71 92 -71 3 0 5 393 5 873 l0 872 -77 47 c-178 106 -381 189 -625 253
-239 62 -354 77 -633 80 -137 2 -295 -1 -350 -6z"/>
<path d="M31957 30067 c4 -7 191 -230 416 -496 465 -548 407 -501 532 -441
111 53 180 144 207 273 l12 54 -230 244 c-126 134 -250 265 -276 290 -86 84
-86 84 -396 86 -209 1 -271 -1 -265 -10z"/>
<path d="M33777 30066 c-67 -25 -113 -65 -268 -235 -84 -91 -197 -210 -251
-264 -65 -65 -98 -105 -98 -120 0 -43 52 -176 86 -221 27 -35 54 -55 119 -86
153 -75 89 -124 555 431 223 265 408 487 412 494 11 18 -505 19 -555 1z"/>
<path d="M32776 29027 c-22 -17 -854 -981 -850 -986 9 -11 360 -20 447 -11
155 16 204 44 336 191 47 52 160 173 250 269 l163 174 -6 42 c-8 59 -55 161
-96 208 -31 35 -142 99 -202 117 -16 4 -33 3 -42 -4z"/>
<path d="M33424 29019 c-130 -41 -205 -119 -247 -258 l-24 -76 75 -80 c41 -44
145 -156 231 -250 305 -332 283 -319 541 -323 102 -1 227 1 279 5 l94 8 -104
120 c-56 66 -139 161 -184 210 -44 50 -180 207 -302 350 -252 296 -269 315
-286 314 -7 0 -40 -9 -73 -20z"/>
<path d="M7240 27389 c-935 -55 -1725 -405 -2370 -1049 -578 -577 -912 -1265
-1019 -2101 -85 -662 -23 -1353 174 -1928 175 -510 430 -921 820 -1320 610
-624 1308 -963 2200 -1067 212 -25 702 -25 905 0 372 45 642 111 955 233 597
232 1137 636 1524 1142 80 104 231 327 231 341 0 5 -249 133 -552 286 -304
152 -666 335 -805 406 l-252 129 -37 -58 c-110 -173 -302 -381 -451 -491 -279
-205 -591 -310 -971 -328 -545 -26 -1024 164 -1391 552 -289 305 -451 638
-533 1094 -20 111 -23 158 -23 425 0 270 3 313 23 428 64 355 182 638 372 897
80 108 291 319 398 398 230 170 482 272 779 318 141 21 429 22 575 0 503 -73
895 -324 1199 -768 33 -49 63 -87 67 -85 4 3 363 190 797 417 435 228 792 415
794 417 7 6 -169 262 -249 363 -117 146 -275 315 -400 425 -754 670 -1701 987
-2760 924z"/>
<path d="M14225 27390 c-964 -56 -1766 -418 -2425 -1096 -566 -582 -884 -1271
-985 -2134 -22 -185 -30 -625 -16 -823 57 -776 287 -1422 703 -1979 274 -365
617 -683 994 -919 596 -373 1320 -558 2094 -536 558 17 1022 119 1481 327 500
226 983 612 1341 1071 424 545 662 1167 740 1939 16 162 16 668 0 830 -54 534
-173 958 -389 1383 -313 615 -853 1169 -1468 1505 -593 325 -1314 475 -2070
432z m545 -1696 c368 -52 686 -212 961 -484 264 -262 432 -556 524 -914 59
-233 70 -328 70 -641 0 -306 -10 -397 -66 -626 -155 -637 -622 -1167 -1196
-1358 -360 -119 -813 -118 -1179 4 -440 146 -834 505 -1054 960 -99 204 -160
409 -197 660 -24 167 -24 553 0 720 50 338 151 618 314 865 415 629 1067 920
1823 814z"/>
<path d="M22925 27389 c-459 -38 -968 -210 -1383 -470 -261 -163 -509 -381
-700 -614 l-32 -40 0 488 0 487 -945 0 -945 0 0 -3585 0 -3585 945 0 945 0 0
2303 0 2303 48 95 c232 463 669 764 1257 866 77 13 160 17 355 17 227 1 265
-2 346 -21 511 -121 783 -482 892 -1183 14 -94 16 -326 19 -2242 l3 -2138 945
0 945 0 -3 2503 c-3 2325 -4 2510 -20 2617 -101 660 -340 1126 -786 1533 -395
361 -833 575 -1323 647 -155 23 -414 32 -563 19z"/>
<path d="M38363 27390 c-606 -35 -1276 -176 -1762 -372 -161 -64 -441 -200
-646 -312 -157 -86 -364 -215 -365 -227 0 -6 698 -1369 706 -1378 2 -2 70 35
151 82 190 109 220 123 388 190 218 86 570 190 770 227 287 53 687 76 877 51
417 -56 672 -318 753 -776 9 -49 19 -163 22 -252 l6 -163 -824 0 c-828 0
-1062 -7 -1284 -36 -1039 -135 -1893 -685 -2219 -1429 -216 -494 -274 -1138
-146 -1633 75 -290 205 -523 410 -735 125 -131 213 -203 380 -313 517 -342
1129 -472 1824 -389 741 88 1338 412 1771 959 l70 88 3 -451 2 -451 945 0 945
0 0 2263 c0 1346 -4 2343 -10 2462 -44 883 -283 1508 -741 1938 -389 367 -869
586 -1414 647 -133 15 -439 20 -612 10z m884 -4372 c-6 -200 -23 -302 -77
-463 -98 -295 -368 -709 -590 -904 -188 -166 -387 -266 -630 -318 -116 -24
-424 -24 -560 0 -538 98 -813 461 -760 1001 26 267 95 429 245 582 158 160
352 239 680 278 17 1 405 4 864 5 l834 1 -6 -182z"/>
<path d="M32120 23655 l0 -3585 945 0 945 0 0 3585 0 3585 -945 0 -945 0 0
-3585z"/>
<path d="M25385 18125 c-96 -21 -168 -52 -244 -106 -134 -94 -228 -237 -278
-425 -23 -88 -26 -118 -27 -269 -1 -174 7 -233 46 -355 34 -107 67 -161 142
-235 93 -92 143 -120 414 -232 125 -52 250 -108 279 -125 106 -64 123 -120
123 -398 0 -266 -20 -330 -124 -395 -48 -29 -53 -30 -170 -30 -105 0 -126 3
-161 22 -52 27 -77 56 -111 123 -25 48 -28 69 -32 173 l-4 117 -214 0 -214 0
0 -115 c0 -154 20 -248 77 -364 38 -79 61 -110 132 -182 69 -69 102 -94 171
-128 136 -66 227 -84 390 -78 153 6 223 21 327 73 156 79 262 214 322 414 61
205 57 646 -9 834 -30 89 -61 135 -137 207 -84 79 -156 117 -404 215 -377 148
-405 175 -416 399 -12 241 46 378 180 430 70 27 198 18 259 -18 89 -52 138
-167 138 -324 l0 -93 222 0 221 0 -6 153 c-7 170 -21 239 -72 342 -86 175
-262 314 -461 365 -91 24 -265 26 -359 5z"/>
<path d="M10286 18096 c-18 -70 -656 -2937 -656 -2946 0 -7 67 -10 213 -8
l212 3 57 285 c31 157 59 300 63 318 l6 32 288 0 289 0 62 -320 63 -320 213 0
c118 0 214 3 214 7 0 3 -148 671 -330 1484 -181 813 -330 1480 -330 1483 0 3
-81 6 -179 6 l-179 0 -6 -24z m289 -1381 l100 -520 -204 -3 c-112 -1 -206 -1
-208 2 -2 2 42 243 99 535 57 293 105 526 107 519 3 -7 50 -247 106 -533z"/>
<path d="M17830 17905 l0 -215 215 0 215 0 0 215 0 215 -215 0 -215 0 0 -215z"/>
<path d="M21770 17594 l0 -526 -37 45 c-112 135 -266 194 -443 169 -105 -15
-162 -43 -236 -117 -64 -63 -95 -126 -115 -230 -6 -27 -13 -297 -16 -600 -6
-573 2 -795 33 -909 35 -134 101 -217 212 -269 57 -27 80 -31 172 -35 169 -7
241 20 363 137 l67 64 0 -91 0 -92 215 0 215 0 0 1490 0 1490 -215 0 -215 0 0
-526z m-103 -765 c43 -27 78 -74 93 -124 8 -29 10 -178 8 -520 -3 -470 -3
-481 -25 -520 -43 -80 -98 -115 -183 -115 -93 0 -146 38 -182 129 -21 54 -22
71 -26 483 -2 284 0 451 8 499 23 148 87 205 219 193 30 -2 70 -14 88 -25z"/>
<path d="M11830 17279 c-154 -26 -283 -156 -321 -325 -16 -70 -24 -1222 -10
-1370 31 -315 148 -448 404 -462 166 -8 286 41 390 159 l47 54 -2 -250 c-3
-238 -4 -252 -26 -297 -34 -68 -78 -93 -167 -93 -47 0 -82 6 -107 19 -46 22
-95 87 -110 144 l-10 42 -214 0 -214 0 6 -42 c32 -206 112 -359 243 -461 235
-185 599 -179 824 14 58 50 129 148 156 215 52 133 51 110 51 1419 l0 1215
-215 0 -215 0 0 -92 0 -91 -74 71 c-127 124 -252 161 -436 131z m353 -430 c50
-14 106 -64 131 -119 20 -43 21 -64 24 -505 4 -519 2 -543 -56 -608 -46 -50
-86 -67 -159 -67 -87 0 -136 28 -170 98 l-28 57 -3 445 c-3 476 1 544 43 616
29 50 44 62 92 80 46 16 77 17 126 3z"/>
<path d="M13592 17279 c-137 -20 -263 -87 -357 -192 -67 -74 -108 -153 -132
-255 -16 -69 -18 -132 -18 -637 0 -623 -1 -618 70 -760 46 -93 100 -153 191
-214 115 -77 187 -96 364 -96 127 0 154 3 219 24 136 45 272 154 340 274 39
70 70 175 78 264 l6 73 -214 0 -214 0 -17 -58 c-36 -118 -78 -152 -192 -152
-100 0 -158 34 -191 113 -11 28 -15 76 -15 207 l0 170 421 0 420 0 -4 368 c-4
402 -6 422 -69 547 -121 245 -381 367 -686 324z m227 -447 c41 -21 76 -68 91
-121 5 -20 10 -102 10 -183 l0 -148 -205 0 -205 0 0 151 c0 91 5 168 12 193
16 52 74 110 124 124 51 14 128 7 173 -16z"/>
<path d="M15390 17276 c-94 -20 -178 -75 -255 -167 l-40 -48 -3 99 -3 100
-214 0 -215 0 0 -1060 0 -1060 215 0 214 0 3 778 3 777 30 60 c40 79 75 99
170 99 53 0 79 -5 105 -20 48 -28 88 -89 100 -153 6 -33 10 -341 10 -798 l0
-743 213 2 212 3 0 870 c0 793 -2 876 -17 932 -51 182 -161 293 -325 328 -80
17 -128 18 -203 1z"/>
<path d="M16828 17279 c-246 -36 -434 -204 -495 -445 -16 -62 -18 -125 -18
-634 0 -508 2 -572 18 -630 23 -88 78 -195 127 -252 56 -65 171 -139 261 -169
65 -21 92 -24 219 -24 127 0 154 3 219 24 150 49 292 171 356 306 37 78 65
190 65 259 l0 46 -212 0 -213 0 -17 -58 c-36 -118 -78 -152 -192 -152 -100 0
-158 34 -191 113 -13 31 -15 109 -15 534 l0 498 24 51 c28 60 65 90 134 105
58 14 127 1 174 -32 38 -28 69 -90 75 -155 l6 -54 215 0 215 0 -6 78 c-17 205
-104 379 -241 477 -143 102 -321 142 -508 114z"/>
<path d="M19065 17276 c-197 -38 -360 -158 -446 -327 -34 -69 -67 -185 -71
-254 l-3 -50 205 0 204 0 17 44 c22 59 70 116 122 143 58 30 168 31 217 2 77
-45 100 -117 100 -312 l0 -127 -202 0 c-182 0 -211 -2 -283 -23 -158 -46 -263
-127 -320 -249 -79 -167 -96 -520 -34 -708 45 -134 148 -236 281 -276 99 -30
249 -24 330 13 56 26 146 106 201 178 l27 35 0 -112 0 -113 215 0 216 0 -3
813 c-4 910 0 853 -79 1016 -96 194 -278 303 -529 316 -58 3 -122 -1 -165 -9z
m333 -1225 c11 -7 13 -47 10 -197 -3 -183 -4 -191 -31 -241 -38 -72 -90 -106
-172 -111 -77 -5 -125 10 -167 51 -63 64 -88 168 -68 287 18 109 90 183 203
210 45 11 209 12 225 1z"/>
<path d="M23035 17281 c-143 -24 -252 -77 -345 -171 -75 -75 -122 -157 -152
-267 -21 -74 -22 -103 -26 -573 -4 -535 2 -646 43 -764 57 -163 189 -295 356
-353 58 -20 101 -26 195 -30 146 -7 238 11 346 64 92 46 210 162 256 250 39
75 72 197 72 270 l0 53 -214 0 -213 0 -7 -37 c-9 -53 -47 -123 -79 -147 -20
-15 -47 -21 -98 -24 -118 -7 -194 37 -219 126 -5 20 -10 110 -10 200 l0 162
420 0 420 0 0 348 c0 316 -2 356 -20 428 -59 234 -212 392 -435 449 -73 19
-222 27 -290 16z m215 -446 c39 -20 77 -69 90 -113 5 -20 10 -106 10 -189 l0
-153 -206 0 -206 0 3 168 c4 162 5 168 32 214 26 45 59 70 117 89 34 11 125 2
160 -16z"/>
<path d="M27045 17280 c-147 -24 -260 -83 -358 -189 -144 -156 -166 -275 -166
-881 -1 -631 24 -757 183 -915 124 -123 260 -175 455 -175 128 0 197 16 309
71 188 92 304 270 328 502 l7 67 -216 0 -215 0 -7 -32 c-4 -18 -18 -57 -32
-86 -32 -68 -75 -92 -168 -92 -75 0 -119 16 -157 56 -43 46 -48 74 -48 260 l0
174 421 0 421 0 -4 363 c-4 340 -6 367 -27 437 -32 106 -76 184 -149 261 -70
75 -175 136 -279 163 -78 20 -220 28 -298 16z m230 -455 c30 -17 50 -39 66
-72 21 -43 24 -65 27 -210 l4 -163 -206 0 -206 0 0 163 c0 135 3 169 19 202
21 47 70 92 109 101 15 3 32 8 37 10 25 10 111 -8 150 -31z"/>
<path d="M28448 17280 c-114 -19 -230 -105 -281 -206 -52 -104 -52 -107 -52
-859 0 -634 2 -706 18 -768 38 -150 117 -252 232 -298 52 -20 77 -24 186 -24
124 0 125 0 200 37 53 26 93 56 137 102 l62 64 0 -246 c0 -272 -6 -304 -64
-350 -61 -47 -171 -54 -239 -15 -45 27 -96 97 -103 144 l-7 39 -214 0 -215 0
7 -57 c3 -32 20 -97 36 -145 66 -200 204 -342 394 -405 70 -24 96 -27 210 -27
113 1 140 4 211 27 96 32 180 85 250 158 65 68 99 123 133 213 l26 71 3 1263
2 1262 -215 0 -215 0 0 -91 0 -90 -54 58 c-116 125 -267 173 -448 143z m403
-454 c21 -14 51 -47 66 -73 l28 -48 0 -512 0 -511 -30 -44 c-49 -68 -95 -89
-187 -86 -92 4 -121 21 -158 94 l-25 49 -3 479 c-3 533 -1 555 61 622 62 68
171 81 248 30z"/>
<path d="M32225 17279 c-133 -19 -241 -75 -412 -214 l-33 -26 0 110 0 111
-215 0 -215 0 2 -1057 3 -1058 213 -3 212 -2 0 632 c0 348 5 667 10 708 18
141 106 272 223 332 87 44 236 57 314 27 l23 -9 0 230 0 230 -32 -1 c-18 -1
-60 -5 -93 -10z"/>
<path d="M32975 17281 c-203 -34 -367 -148 -447 -312 -67 -135 -70 -168 -75
-694 -5 -515 2 -641 43 -763 32 -97 77 -164 157 -238 116 -106 251 -154 437
-154 196 0 332 52 456 175 159 159 184 277 184 905 0 372 -10 554 -36 653 -51
197 -216 360 -419 412 -73 19 -232 27 -300 16z m215 -446 c38 -20 77 -69 90
-113 8 -25 10 -201 8 -543 l-3 -505 -28 -42 c-36 -56 -90 -82 -167 -82 -89 0
-144 31 -184 105 -20 39 -21 51 -24 514 -2 315 1 491 8 525 18 82 61 132 138
157 36 11 127 2 162 -16z"/>
<path d="M34485 17276 c-146 -29 -241 -81 -341 -189 -213 -230 -220 -598 -16
-819 83 -89 176 -146 343 -208 267 -98 325 -142 349 -255 28 -134 -44 -246
-175 -276 -137 -30 -233 34 -271 181 l-11 45 -203 3 -203 2 7 -69 c23 -251
174 -450 406 -536 100 -37 261 -46 374 -21 226 51 407 230 466 462 52 204 -3
454 -131 589 -79 84 -144 121 -378 216 -118 49 -226 97 -240 107 -112 83 -92
291 33 352 54 26 137 26 192 1 50 -23 102 -84 110 -131 13 -76 -6 -70 216 -70
l201 0 -6 68 c-22 255 -190 466 -427 536 -77 23 -211 28 -295 12z"/>
<path d="M17830 16200 l0 -1060 215 0 215 0 0 1060 0 1060 -215 0 -215 0 0
-1060z"/>
<path d="M29730 16408 c0 -945 0 -932 65 -1065 70 -142 182 -212 353 -221 167
-8 279 42 386 173 l46 57 0 -106 0 -106 215 0 215 0 0 1060 0 1060 -215 0
-214 0 -3 -772 c-3 -831 -2 -804 -56 -877 -32 -43 -77 -61 -152 -61 -72 0
-128 25 -160 70 -50 70 -50 71 -50 882 l0 758 -215 0 -215 0 0 -852z"/>
</g>
</svg>
